<?xml version="1.0" encoding="iso-8859-1"?>
<!-- Generator: Adobe Illustrator 19.0.0, SVG Export Plug-In . SVG Version: 6.00 Build 0)  -->
<svg xmlns="http://www.w3.org/2000/svg" xmlns:xlink="http://www.w3.org/1999/xlink" version="1.1" id="Layer_1" x="0px" y="0px" viewBox="0 0 493.172 493.172" style="enable-background:new 0 0 493.172 493.172;" xml:space="preserve" width="512" height="512">
<g>
	<rect x="26.957" y="69.347" style="fill:#3F8E50;" width="77.101" height="39.533"/>
	<polygon style="fill:#3F8E50;" points="327.392,124.163 166.311,125.238 183.615,52.422 310.342,52.422  "/>
	<polygon style="fill:#71CE93;" points="492.387,440.75 369.213,440.75 353.229,426.27 132.267,426.27 114.401,440.75 1.57,440.75    1.57,103.196 123.805,103.196 142.141,120.894 349.102,120.894 367.332,103.196 492.387,103.196  "/>
	<rect x="367.332" y="103.196" style="opacity:0.68;fill:#3F8E50;" width="125.055" height="337.554"/>
	<rect y="103.196" style="opacity:0.38;fill:#3F8E50;" width="113.281" height="337.554"/>
	<circle style="fill:#2B5448;" cx="245.621" cy="267.494" r="107.985"/>
	<circle style="fill:#3F8E50;" cx="245.621" cy="267.494" r="67.091"/>
	<circle style="fill:#2B5448;" cx="61.747" cy="187.82" r="20.156"/>
	<circle style="fill:#2B5448;" cx="61.747" cy="254.189" r="20.156"/>
	<circle style="fill:#2B5448;" cx="435.031" cy="168.347" r="25.387"/>
	<path style="opacity:0.58;fill:#FFFFFF;" d="M278.363,208.822l-97.026,77.767c5.073,16.999,16.694,31.168,31.947,39.576   l96.751-77.547C305.078,231.572,293.549,217.332,278.363,208.822z"/>
	<polygon style="opacity:0.34;fill:#2B5448;" points="49.18,377.6 48.059,377.6 0.785,377.6 0.785,440.75 2.356,440.75    114.066,440.75 115.186,440.75 133.052,426.27 354.014,426.27 368.117,439.046 368.117,440.75 369.998,440.75 493.172,440.75    493.172,103.196 427.166,103.196 427.166,377.6 303.991,377.6 302.11,377.6 302.11,375.895  "/>
</g>















</svg>
