<?xml version="1.0" encoding="iso-8859-1"?>
<!-- Generator: Adobe Illustrator 19.0.0, SVG Export Plug-In . SVG Version: 6.00 Build 0)  -->
<svg version="1.1" id="Layer_1" xmlns="http://www.w3.org/2000/svg" xmlns:xlink="http://www.w3.org/1999/xlink" x="0px" y="0px"
	 viewBox="0 0 512 512" style="enable-background:new 0 0 512 512;" xml:space="preserve">
<g>
	<rect x="282.122" y="214.204" style="fill:#E6E7E8;" width="52.245" height="62.694"/>
	<path style="fill:#E6E7E8;" d="M334.367,276.898v53.082c-15.153,9.408-33.122,14.837-52.245,14.837v-67.918H334.367z"/>
	<path style="fill:#E6E7E8;" d="M334.367,276.898h41.898c-7.316,22.255-22.357,40.959-41.898,53.082V276.898z"/>
	<path style="fill:#E6E7E8;" d="M376.266,214.204c3.347,9.817,5.122,20.378,5.122,31.347s-1.775,21.521-5.122,31.347h-41.898
		v-62.694H376.266z"/>
	<path style="fill:#E6E7E8;" d="M376.266,214.204h-41.898v-53.082C353.908,173.245,368.949,191.949,376.266,214.204z"/>
	<path style="fill:#E6E7E8;" d="M282.122,151.51v62.694h-52.245v-53.082c15.153-9.408,33.122-14.837,52.245-14.837h0.102
		L282.122,151.51z"/>
	<path style="fill:#E6E7E8;" d="M334.367,161.122v53.082h-52.245V151.51l0.102-5.224
		C301.346,146.286,319.214,151.714,334.367,161.122z"/>
	<rect x="229.878" y="214.204" style="fill:#E6E7E8;" width="52.245" height="62.694"/>
	<path style="fill:#E6E7E8;" d="M282.122,276.898v67.918c-19.123,0-37.092-5.428-52.245-14.837v-53.082H282.122z"/>
	<path style="fill:#E6E7E8;" d="M229.878,276.898v53.082c-19.541-12.123-34.591-30.827-41.898-53.082H229.878z"/>
	<path style="fill:#E6E7E8;" d="M229.878,214.204v62.694h-41.898c-3.347-9.826-5.122-20.378-5.122-31.347s1.775-21.53,5.122-31.347
		H229.878z"/>
	<path style="fill:#E6E7E8;" d="M229.878,161.122v53.082h-41.898C195.286,191.949,210.337,173.245,229.878,161.122z"/>
</g>
<path style="fill:#F4661E;" d="M350.041,67.918v20.898c0,5.745-4.704,10.449-10.449,10.449H224.653
	c-5.745,0-10.449-4.704-10.449-10.449V67.918c0-5.745,4.704-10.449,10.449-10.449h114.939
	C345.337,57.469,350.041,62.174,350.041,67.918z"/>
<rect x="67.918" y="10.449" style="fill:#31C0D8;" width="57.469" height="491.102"/>
<path style="fill:#FFD248;" d="M229.878,329.98c15.153,9.408,33.122,14.837,52.245,14.837s37.092-5.428,52.245-14.837
	c19.541-12.123,34.582-30.827,41.898-53.082c3.347-9.826,5.122-20.378,5.122-31.347s-1.775-21.53-5.122-31.347
	c-7.316-22.255-22.357-40.959-41.898-53.082c-15.153-9.408-33.021-14.837-52.143-14.837h-0.102
	c-19.123,0-37.092,5.428-52.245,14.837c-19.541,12.123-34.591,30.827-41.898,53.082c-3.347,9.817-5.122,20.378-5.122,31.347
	s1.775,21.521,5.122,31.347C195.286,299.153,210.337,317.857,229.878,329.98z M444.082,41.796v428.408
	c0,17.347-14,31.347-31.347,31.347H125.388V10.449h287.347C430.082,10.449,444.082,24.449,444.082,41.796z M350.041,88.816V67.918
	c0-5.745-4.704-10.449-10.449-10.449H224.653c-5.745,0-10.449,4.704-10.449,10.449v20.898c0,5.745,4.704,10.449,10.449,10.449
	h114.939C345.337,99.265,350.041,94.561,350.041,88.816z"/>
<g>
	<path style="fill:#231F20;" d="M412.735,0H67.918c-5.77,0-10.449,4.678-10.449,10.449v491.102c0,5.77,4.679,10.449,10.449,10.449
		h344.816c23.046,0,41.796-18.75,41.796-41.796V41.796C454.531,18.75,435.781,0,412.735,0z M78.367,20.898h36.571v470.204H78.367
		V20.898z M433.633,470.204c0,11.523-9.375,20.898-20.898,20.898H135.837V20.898h276.898c11.523,0,20.898,9.375,20.898,20.898
		V470.204z"/>
	<path style="fill:#231F20;" d="M339.878,152.245c-17.289-10.733-37.226-16.408-57.756-16.408c-20.495,0-40.468,5.675-57.753,16.406
		c-21.884,13.576-38.325,34.402-46.299,58.645c-3.757,11.041-5.662,22.704-5.662,34.663c0,11.949,1.905,23.614,5.663,34.664
		c7.974,24.243,24.413,45.068,46.295,58.642c17.288,10.733,37.261,16.408,57.756,16.408s40.467-5.675,57.754-16.406
		c21.871-13.568,38.31-34.393,46.298-58.642c3.757-11.052,5.662-22.714,5.662-34.667c0-11.962-1.905-23.624-5.663-34.666
		C378.186,186.634,361.747,165.811,339.878,152.245z M370.939,245.551c0,7.143-0.843,14.143-2.501,20.898h-23.621v-41.796h23.622
		C370.096,231.402,370.939,238.402,370.939,245.551z M323.918,323.941c-9.729,5.198-20.355,8.512-31.347,9.803v-46.398h31.347
		V323.941z M240.327,287.347h31.347v46.398c-10.991-1.29-21.617-4.604-31.347-9.803V287.347z M195.808,266.449
		c-1.657-6.755-2.501-13.755-2.501-20.898c0-7.149,0.843-14.149,2.5-20.898h23.622v41.796H195.808z M240.327,224.653h31.347v41.796
		h-31.347V224.653z M240.327,167.16c9.716-5.191,20.331-8.502,31.347-9.797v46.392h-31.347V167.16z M323.918,203.755h-31.347V157.35
		c10.978,1.285,21.603,4.601,31.347,9.809V203.755z M292.571,266.449v-41.796h31.347v41.796H292.571z M344.816,203.755v-21.1
		c6.243,6.227,11.529,13.337,15.659,21.1H344.816z M219.429,182.652v21.103h-15.664
		C207.893,195.992,213.181,188.881,219.429,182.652z M203.764,287.347h15.664v21.104
		C213.181,302.222,207.893,295.111,203.764,287.347z M344.816,308.447v-21.1h15.659C356.347,295.111,351.06,302.22,344.816,308.447z
		"/>
	<path style="fill:#231F20;" d="M224.653,109.714h114.939c11.523,0,20.898-9.375,20.898-20.898V67.918
		c0-11.523-9.375-20.898-20.898-20.898H224.653c-11.523,0-20.898,9.375-20.898,20.898v20.898
		C203.755,100.339,213.13,109.714,224.653,109.714z M224.653,67.918h114.939l0.001,20.898h-114.94V67.918z"/>
	<rect x="224.653" y="391.837" style="fill:#231F20;" width="94.041" height="20.898"/>
	<rect x="224.653" y="433.633" style="fill:#231F20;" width="31.347" height="20.898"/>
	<rect x="266.449" y="433.633" style="fill:#231F20;" width="31.347" height="20.898"/>
	<rect x="308.245" y="433.633" style="fill:#231F20;" width="31.347" height="20.898"/>
</g>
<g>
</g>
<g>
</g>
<g>
</g>
<g>
</g>
<g>
</g>
<g>
</g>
<g>
</g>
<g>
</g>
<g>
</g>
<g>
</g>
<g>
</g>
<g>
</g>
<g>
</g>
<g>
</g>
<g>
</g>
</svg>
